<svg width="343" height="61" viewBox="0 0 343 61" fill="none" xmlns="http://www.w3.org/2000/svg">
<g clip-path="url(#clip0_8_5)">
<path d="M42.88 56.4L21.76 -3.888H25.92L47.04 56.4H42.88ZM60.13 56.4L39.01 -3.888H43.17L64.29 56.4H60.13Z" fill="#4870FF"/>
<path d="M99.7435 2.512V50H95.3915V43.344C94.0262 45.6053 92.2128 47.3333 89.9515 48.528C87.7328 49.7227 85.2155 50.32 82.3995 50.32C79.2422 50.32 76.3835 49.5947 73.8235 48.144C71.2635 46.6933 69.2582 44.6667 67.8075 42.064C66.3568 39.4613 65.6315 36.496 65.6315 33.168C65.6315 29.84 66.3568 26.8747 67.8075 24.272C69.2582 21.6693 71.2635 19.664 73.8235 18.256C76.3835 16.8053 79.2422 16.08 82.3995 16.08C85.1302 16.08 87.5835 16.656 89.7595 17.808C91.9782 18.9173 93.7915 20.56 95.1995 22.736V2.512H99.7435ZM82.7835 46.288C85.1302 46.288 87.2422 45.7547 89.1195 44.688C91.0395 43.5787 92.5328 42.0213 93.5995 40.016C94.7088 38.0107 95.2635 35.728 95.2635 33.168C95.2635 30.608 94.7088 28.3253 93.5995 26.32C92.5328 24.3147 91.0395 22.7787 89.1195 21.712C87.2422 20.6027 85.1302 20.048 82.7835 20.048C80.3942 20.048 78.2395 20.6027 76.3195 21.712C74.4422 22.7787 72.9488 24.3147 71.8395 26.32C70.7728 28.3253 70.2395 30.608 70.2395 33.168C70.2395 35.728 70.7728 38.0107 71.8395 40.016C72.9488 42.0213 74.4422 43.5787 76.3195 44.688C78.2395 45.7547 80.3942 46.288 82.7835 46.288ZM141.711 34.576H113.551C113.807 38.0747 115.151 40.912 117.583 43.088C120.015 45.2213 123.087 46.288 126.799 46.288C128.889 46.288 130.809 45.9253 132.559 45.2C134.308 44.432 135.823 43.3227 137.103 41.872L139.663 44.816C138.169 46.608 136.292 47.9733 134.031 48.912C131.812 49.8507 129.359 50.32 126.671 50.32C123.215 50.32 120.143 49.5947 117.455 48.144C114.809 46.6507 112.74 44.6027 111.247 42C109.753 39.3973 109.007 36.4533 109.007 33.168C109.007 29.8827 109.711 26.9387 111.119 24.336C112.569 21.7333 114.532 19.7067 117.007 18.256C119.524 16.8053 122.34 16.08 125.455 16.08C128.569 16.08 131.364 16.8053 133.839 18.256C136.313 19.7067 138.255 21.7333 139.663 24.336C141.071 26.896 141.775 29.84 141.775 33.168L141.711 34.576ZM125.455 19.984C122.212 19.984 119.481 21.0293 117.263 23.12C115.087 25.168 113.849 27.856 113.551 31.184H137.423C137.124 27.856 135.865 25.168 133.647 23.12C131.471 21.0293 128.74 19.984 125.455 19.984ZM178.687 16.336L163.711 50H159.039L144.127 16.336H148.863L161.471 45.008L174.207 16.336H178.687ZM247.55 5.2L232.446 50H227.454L214.334 11.792L201.15 50H196.222L181.118 5.2H185.982L198.91 43.728L212.286 5.2H216.702L229.886 43.92L243.006 5.2H247.55ZM255.086 16.336H259.63V50H255.086V16.336ZM257.39 8.976C256.451 8.976 255.662 8.656 255.022 8.016C254.382 7.376 254.062 6.608 254.062 5.712C254.062 4.85867 254.382 4.112 255.022 3.472C255.662 2.832 256.451 2.512 257.39 2.512C258.329 2.512 259.118 2.832 259.758 3.472C260.398 4.06933 260.718 4.79466 260.718 5.648C260.718 6.58667 260.398 7.376 259.758 8.016C259.118 8.656 258.329 8.976 257.39 8.976ZM284.753 33.104L276.818 40.4V50H272.274V2.512H276.818V34.704L296.914 16.336H302.546L288.146 30.096L303.89 50H298.322L284.753 33.104ZM310.211 16.336H314.755V50H310.211V16.336ZM312.515 8.976C311.576 8.976 310.787 8.656 310.147 8.016C309.507 7.376 309.187 6.608 309.187 5.712C309.187 4.85867 309.507 4.112 310.147 3.472C310.787 2.832 311.576 2.512 312.515 2.512C313.454 2.512 314.243 2.832 314.883 3.472C315.523 4.06933 315.843 4.79466 315.843 5.648C315.843 6.58667 315.523 7.376 314.883 8.016C314.243 8.656 313.454 8.976 312.515 8.976Z" fill="white"/>
</g>
<defs>
<clipPath id="clip0_8_5">
<rect width="343" height="61" fill="white"/>
</clipPath>
</defs>
</svg>
